:FULLY-SPECIFIED
:FORCE-ALL-JOINTS-BE-3DOF
:DEGREES
1
root 0.0917792 17.1113 -36.2281 4.68854 2.37172 2.1196
lfemur -7.00586 -1.73986 -27.8547
ltibia 41.1896 0 0
lfoot -18.4606 0.563554 0
ltoes -11.2184 0 0
rfemur -36.1767 -4.01455 16.7326
rtibia 108.236 0 0
rfoot 12.8687 -5.27186 0
rtoes 8.52629 0 0
lowerback 19.257 -1.22373 -5.06989
upperback 1.70725 -2.88959 -2.17631
thorax -8.80689 -1.22956 1.27549
lowerneck -3.02729 -0.130267 -1.32286
upperneck -12.924 0.233441 4.10486
head -3.67612 0.0262048 1.58301
lclavicle -9.54166e-15 -7.15625e-15 0
lhumerus -10.0203 -20.6355 82.8192
lradius 113.865 0 0
lwrist 27.5011 0 0
lhand -37.1915 8.38258 0
lfingers 7.12502 0 0
lthumb -10.2594 38.1124 0
rclavicle -9.54166e-15 -7.15625e-15 0
rhumerus -54.6221 8.39899 -88.3047
rradius 81.0784 0 0
rwrist -0.792659 0 0
rhand -48.8742 40.2847 0
rfingers 7.12502 0 0
rthumb -21.5082 11.4588 0
2
root 0.106441 17.1342 -35.6731 4.6378 1.94155 2.09577
lfemur -6.59561 -1.32911 -27.7179
ltibia 42.4802 0 0
lfoot -16.915 0.689798 0
ltoes -11.0506 0 0
rfemur -35.8223 -3.79892 17.0312
rtibia 105.638 0 0
rfoot 12.3894 -4.97774 0
rtoes 8.5778 0 0
lowerback 19.1371 -1.22971 -4.96013
upperback 1.69886 -2.86535 -2.09827
thorax -8.75184 -1.22177 1.28785
lowerneck -3.0628 -0.013221 -1.32526
upperneck -12.8661 0.373622 3.93022
head -3.64885 0.10142 1.52427
lclavicle -9.19218e-15 -6.65929e-15 0
lhumerus -10.8081 -20.5897 83.1801
lradius 113.648 0 0
lwrist 27.596 0 0
lhand -37.2493 8.44127 0
lfingers 7.12502 0 0
lthumb -10.3151 38.1681 0
rclavicle -9.19218e-15 -6.65929e-15 0
rhumerus -54.5757 8.23106 -88.1838
rradius 81.4619 0 0
rwrist -0.913587 0 0
rhand -48.7136 40.2026 0
rfingers 7.12502 0 0
rthumb -21.3538 11.3614 0
3
root 0.121103 17.1572 -35.1181 4.58706 1.51138 2.07193
lfemur -6.18537 -0.918366 -27.5812
ltibia 43.7708 0 0
lfoot -15.3693 0.816042 0
ltoes -10.8827 0 0
rfemur -35.4679 -3.5833 17.3298
rtibia 103.04 0 0
rfoot 11.9102 -4.68362 0
rtoes 8.62932 0 0
lowerback 19.0172 -1.23569 -4.85037
upperback 1.69048 -2.8411 -2.02023
thorax -8.69679 -1.21398 1.3002
lowerneck -3.09831 0.103825 -1.32765
upperneck -12.8081 0.513802 3.75559
head -3.62157 0.176635 1.46554
lclavicle -8.84271e-15 -6.16233e-15 0
lhumerus -11.5959 -20.5439 83.5409
lradius 113.432 0 0
lwrist 27.6909 0 0
lhand -37.307 8.49996 0
lfingers 7.12502 0 0
lthumb -10.3708 38.2238 0
rclavicle -8.84271e-15 -6.16233e-15 0
rhumerus -54.5292 8.06312 -88.0629
rradius 81.8455 0 0
rwrist -1.03452 0 0
rhand -48.5531 40.1205 0
rfingers 7.12502 0 0
rthumb -21.1994 11.264 0
4
root 0.135764 17.1801 -34.5631 4.53632 1.08121 2.0481
lfemur -5.77512 -0.507619 -27.4444
ltibia 45.0614 0 0
lfoot -13.8237 0.942286 0
ltoes -10.7149 0 0
rfemur -35.1135 -3.36767 17.6284
rtibia 100.441 0 0
rfoot 11.4309 -4.38951 0
rtoes 8.68083 0 0
lowerback 18.8973 -1.24167 -4.74061
upperback 1.68209 -2.81686 -1.94218
thorax -8.64175 -1.20619 1.31256
lowerneck -3.13383 0.220871 -1.33005
upperneck -12.7502 0.653983 3.58095
head -3.5943 0.251851 1.4068
lclavicle -8.49323e-15 -5.66537e-15 0
lhumerus -12.3837 -20.4982 83.9018
lradius 113.215 0 0
lwrist 27.7858 0 0
lhand -37.3648 8.55865 0
lfingers 7.12502 0 0
lthumb -10.4266 38.2795 0
rclavicle -8.49323e-15 -5.66537e-15 0
rhumerus -54.4828 7.89519 -87.942
rradius 82.229 0 0
rwrist -1.15544 0 0
rhand -48.3925 40.0384 0
rfingers 7.12502 0 0
rthumb -21.045 11.1666 0
5
root 0.150426 17.203 -34.0081 4.48558 0.651034 2.02427
lfemur -5.36487 -0.0968716 -27.3077
ltibia 46.3521 0 0
lfoot -12.2781 1.06853 0
ltoes -10.547 0 0
rfemur -34.7591 -3.15204 17.927
rtibia 97.843 0 0
rfoot 10.9517 -4.09539 0
rtoes 8.73234 0 0
lowerback 18.7773 -1.24765 -4.63085
upperback 1.6737 -2.79261 -1.86414
thorax -8.5867 -1.1984 1.32492
lowerneck -3.16934 0.337917 -1.33245
upperneck -12.6923 0.794163 3.40631
head -3.56703 0.327066 1.34806
lclavicle -8.14376e-15 -5.1684e-15 0
lhumerus -13.1716 -20.4524 84.2627
lradius 112.998 0 0
lwrist 27.8808 0 0
lhand -37.4226 8.61734 0
lfingers 7.12502 0 0
lthumb -10.4823 38.3352 0
rclavicle -8.14376e-15 -5.1684e-15 0
rhumerus -54.4364 7.72725 -87.8212
rradius 82.6125 0 0
rwrist -1.27637 0 0
rhand -48.2319 39.9563 0
rfingers 7.12502 0 0
rthumb -20.8906 11.0692 0
6
root 0.165088 17.226 -33.4531 4.43484 0.220862 2.00044
lfemur -4.95463 0.313875 -27.1709
ltibia 47.6427 0 0
lfoot -10.7324 1.19477 0
ltoes -10.3792 0 0
rfemur -34.4047 -2.93642 18.2256
rtibia 95.2448 0 0
rfoot 10.4724 -3.80127 0
rtoes 8.78386 0 0
lowerback 18.6574 -1.25363 -4.52109
upperback 1.66532 -2.76837 -1.7861
thorax -8.53165 -1.19061 1.33728
lowerneck -3.20485 0.454963 -1.33484
upperneck -12.6343 0.934344 3.23167
head -3.53975 0.402281 1.28933
lclavicle -7.79428e-15 -4.67144e-15 0
lhumerus -13.9594 -20.4066 84.6235
lradius 112.781 0 0
lwrist 27.9757 0 0
lhand -37.4804 8.67603 0
lfingers 7.12502 0 0
lthumb -10.538 38.3909 0
rclavicle -7.79428e-15 -4.67144e-15 0
rhumerus -54.3899 7.55932 -87.7003
rradius 82.9961 0 0
rwrist -1.3973 0 0
rhand -48.0714 39.8742 0
rfingers 7.12502 0 0
rthumb -20.7362 10.9718 0
7
root 0.179749 17.2489 -32.8981 4.38409 -0.20931 1.9766
lfemur -4.54438 0.724623 -27.0342
ltibia 48.9333 0 0
lfoot -9.18679 1.32102 0
ltoes -10.2113 0 0
rfemur -34.0503 -2.72079 18.5242
rtibia 92.6465 0 0
rfoot 9.99317 -3.50715 0
rtoes 8.83537 0 0
lowerback 18.5375 -1.25961 -4.41133
upperback 1.65693 -2.74412 -1.70806
thorax -8.4766 -1.18283 1.34963
lowerneck -3.24036 0.572009 -1.33724
upperneck -12.5764 1.07452 3.05704
head -3.51248 0.477497 1.23059
lclavicle -7.4448e-15 -4.17448e-15 0
lhumerus -14.7472 -20.3608 84.9844
lradius 112.565 0 0
lwrist 28.0706 0 0
lhand -37.5381 8.73473 0
lfingers 7.12502 0 0
lthumb -10.5937 38.4465 0
rclavicle -7.4448e-15 -4.17448e-15 0
rhumerus -54.3435 7.39138 -87.5794
rradius 83.3796 0 0
rwrist -1.51823 0 0
rhand -47.9108 39.792 0
rfingers 7.12502 0 0
rthumb -20.5818 10.8744 0
8
root 0.194411 17.2718 -32.3431 4.33335 -0.639481 1.95277
lfemur -4.13413 1.13537 -26.8974
ltibia 50.2239 0 0
lfoot -7.64115 1.44726 0
ltoes -10.0435 0 0
rfemur -33.6959 -2.50516 18.8228
rtibia 90.0483 0 0
rfoot 9.51392 -3.21304 0
rtoes 8.88688 0 0
lowerback 18.4176 -1.26559 -4.30157
upperback 1.64854 -2.71988 -1.63001
thorax -8.42156 -1.17504 1.36199
lowerneck -3.27588 0.689055 -1.33964
upperneck -12.5185 1.21471 2.8824
head -3.48521 0.552712 1.17186
lclavicle -7.09533e-15 -3.67752e-15 0
lhumerus -15.535 -20.315 85.3453
lradius 112.348 0 0
lwrist 28.1655 0 0
lhand -37.5959 8.79342 0
lfingers 7.12502 0 0
lthumb -10.6494 38.5022 0
rclavicle -7.09533e-15 -3.67752e-15 0
rhumerus -54.2971 7.22345 -87.4585
rradius 83.7631 0 0
rwrist -1.63916 0 0
rhand -47.7502 39.7099 0
rfingers 7.12502 0 0
rthumb -20.4274 10.777 0
9
root 0.209073 17.2948 -31.7881 4.28261 -1.06965 1.92894
lfemur -3.72389 1.54612 -26.7607
ltibia 51.5145 0 0
lfoot -6.09552 1.57351 0
ltoes -9.87562 0 0
rfemur -33.3415 -2.28954 19.1214
rtibia 87.4501 0 0
rfoot 9.03466 -2.91892 0
rtoes 8.9384 0 0
lowerback 18.2977 -1.27157 -4.19181
upperback 1.64016 -2.69563 -1.55197
thorax -8.36651 -1.16725 1.37435
lowerneck -3.31139 0.806101 -1.34203
upperneck -12.4605 1.35489 2.70776
head -3.45793 0.627927 1.11312
lclavicle -6.74585e-15 -3.18056e-15 0
lhumerus -16.3228 -20.2693 85.7061
lradius 112.131 0 0
lwrist 28.2604 0 0
lhand -37.6537 8.85211 0
lfingers 7.12502 0 0
lthumb -10.7052 38.5579 0
rclavicle -6.74585e-15 -3.18056e-15 0
rhumerus -54.2506 7.05551 -87.3376
rradius 84.1467 0 0
rwrist -1.76009 0 0
rhand -47.5897 39.6278 0
rfingers 7.12502 0 0
rthumb -20.273 10.6796 0
10
root 0.223734 17.3177 -31.2331 4.23187 -1.49982 1.9051
lfemur -3.31364 1.95686 -26.6239
ltibia 52.8051 0 0
lfoot -4.54988 1.69975 0
ltoes -9.70777 0 0
rfemur -32.9871 -2.07391 19.42
rtibia 84.8518 0 0
rfoot 8.55541 -2.6248 0
rtoes 8.98991 0 0
lowerback 18.1778 -1.27755 -4.08205
upperback 1.63177 -2.67139 -1.47393
thorax -8.31146 -1.15946 1.3867
lowerneck -3.3469 0.923147 -1.34443
upperneck -12.4026 1.49507 2.53313
head -3.43066 0.703143 1.05438
lclavicle -6.39637e-15 -2.6836e-15 0
lhumerus -17.1106 -20.2235 86.067
lradius 111.915 0 0
lwrist 28.3553 0 0
lhand -37.7115 8.9108 0
lfingers 7.12502 0 0
lthumb -10.7609 38.6136 0
rclavicle -6.39637e-15 -2.6836e-15 0
rhumerus -54.2042 6.88758 -87.2167
rradius 84.5302 0 0
rwrist -1.88101 0 0
rhand -47.4291 39.5457 0
rfingers 7.12502 0 0
rthumb -20.1186 10.5822 0
11
root 0.238396 17.3407 -30.6781 4.18113 -1.93 1.88127
lfemur -2.9034 2.36761 -26.4872
ltibia 54.0957 0 0
lfoot -3.00425 1.82599 0
ltoes -9.53992 0 0
rfemur -32.6327 -1.85828 19.7186
rtibia 82.2536 0 0
rfoot 8.07615 -2.33068 0
rtoes 9.04142 0 0
lowerback 18.0578 -1.28353 -3.97229
upperback 1.62338 -2.64714 -1.39589
thorax -8.25641 -1.15167 1.39906
lowerneck -3.38241 1.04019 -1.34682
upperneck -12.3447 1.63525 2.35849
head -3.40339 0.778358 0.995646
lclavicle -6.0469e-15 -2.18663e-15 0
lhumerus -17.8985 -20.1777 86.4279
lradius 111.698 0 0
lwrist 28.4503 0 0
lhand -37.7692 8.96949 0
lfingers 7.12502 0 0
lthumb -10.8166 38.6693 0
rclavicle -6.0469e-15 -2.18663e-15 0
rhumerus -54.1577 6.71964 -87.0958
rradius 84.9138 0 0
rwrist -2.00194 0 0
rhand -47.2685 39.4636 0
rfingers 7.12502 0 0
rthumb -19.9642 10.4848 0
12
root 0.253058 17.3636 -30.1231 4.13039 -2.36017 1.85744
lfemur -2.49315 2.77836 -26.3504
ltibia 55.3863 0 0
lfoot -1.45861 1.95224 0
ltoes -9.37207 0 0
rfemur -32.2783 -1.64266 20.0172
rtibia 79.6553 0 0
rfoot 7.5969 -2.03656 0
rtoes 9.09294 0 0
lowerback 17.9379 -1.28951 -3.86253
upperback 1.615 -2.6229 -1.31784
thorax -8.20136 -1.14388 1.41142
lowerneck -3.41792 1.15724 -1.34922
upperneck -12.2867 1.77543 2.18385
head -3.37611 0.853573 0.93691
lclavicle -5.69742e-15 -1.68967e-15 0
lhumerus -18.6863 -20.1319 86.7887
lradius 111.481 0 0
lwrist 28.5452 0 0
lhand -37.827 9.02818 0
lfingers 7.12502 0 0
lthumb -10.8723 38.725 0
rclavicle -5.69742e-15 -1.68967e-15 0
rhumerus -54.1113 6.55171 -86.9749
rradius 85.2973 0 0
rwrist -2.12287 0 0
rhand -47.108 39.3815 0
rfingers 7.12502 0 0
rthumb -19.8098 10.3874 0
13
root 0.267719 17.3865 -29.5681 4.07965 -2.79034 1.83361
lfemur -2.0829 3.18911 -26.2136
ltibia 56.677 0 0
lfoot 0.0870258 2.07848 0
ltoes -9.20423 0 0
rfemur -31.9239 -1.42703 20.3158
rtibia 77.0571 0 0
rfoot 7.11764 -1.74245 0
rtoes 9.14445 0 0
lowerback 17.818 -1.29549 -3.75277
upperback 1.60661 -2.59866 -1.2398
thorax -8.14632 -1.13609 1.42378
lowerneck -3.45344 1.27429 -1.35162
upperneck -12.2288 1.91561 2.00921
head -3.34884 0.928789 0.878174
lclavicle -5.34795e-15 -1.19271e-15 0
lhumerus -19.4741 -20.0861 87.1496
lradius 111.264 0 0
lwrist 28.6401 0 0
lhand -37.8848 9.08687 0
lfingers 7.12502 0 0
lthumb -10.928 38.7807 0
rclavicle -5.34795e-15 -1.19271e-15 0
rhumerus -54.0649 6.38378 -86.8541
rradius 85.6808 0 0
rwrist -2.2438 0 0
rhand -46.9474 39.2994 0
rfingers 7.12502 0 0
rthumb -19.6554 10.29 0
14
root 0.282381 17.4095 -29.0131 4.02891 -3.22051 1.80977
lfemur -1.67266 3.59985 -26.0769
ltibia 57.9676 0 0
lfoot 1.63266 2.20473 0
ltoes -9.03638 0 0
rfemur -31.5695 -1.2114 20.6144
rtibia 74.4589 0 0
rfoot 6.63839 -1.44833 0
rtoes 9.19596 0 0
lowerback 17.6981 -1.30147 -3.64301
upperback 1.59822 -2.57441 -1.16176
thorax -8.09127 -1.1283 1.43613
lowerneck -3.48895 1.39133 -1.35401
upperneck -12.1709 2.05579 1.83458
head -3.32157 1.004 0.819437
lclavicle -4.99847e-15 -6.95749e-16 0
lhumerus -20.2619 -20.0404 87.5105
lradius 111.048 0 0
lwrist 28.735 0 0
lhand -37.9426 9.14556 0
lfingers 7.12502 0 0
lthumb -10.9838 38.8364 0
rclavicle -4.99847e-15 -6.95749e-16 0
rhumerus -54.0184 6.21584 -86.7332
rradius 86.0644 0 0
rwrist -2.36473 0 0
rhand -46.7868 39.2173 0
rfingers 7.12502 0 0
rthumb -19.501 10.1926 0
